<svg version="1.1" id="Layer_1" xmlns="http://www.w3.org/2000/svg" xmlns:xlink="http://www.w3.org/1999/xlink" x="0px" y="0px"
	 width="100%" viewBox="0 0 592 592" enable-background="new 0 0 592 592" xml:space="preserve">
<path fill="#000000" opacity="1.000000" stroke="none" 
	d="
M307.443665,495.602417 
	C305.630493,494.115997 304.093964,492.851501 302.118561,491.225891 
	C293.979309,497.838989 284.746094,502.707977 275.740509,507.992310 
	C239.266449,529.394653 190.383469,518.150818 164.376633,482.699860 
	C151.931229,465.734924 145.747086,446.650146 145.916077,425.733368 
	C146.106491,402.162537 155.084610,382.024902 171.439026,365.124420 
	C195.189850,340.580566 218.933487,316.029785 242.688141,291.489594 
	C259.487244,274.135010 276.289673,256.783661 293.111298,239.450912 
	C298.909576,233.476456 305.497284,233.937546 311.167419,239.846405 
	C331.468567,261.002228 351.979797,281.956360 372.397461,303.000458 
	C391.537384,322.727539 411.273773,341.918121 429.667511,362.318695 
	C474.430695,411.965820 458.572113,476.319763 413.830994,504.759705 
	C385.476105,522.783630 355.625671,524.198547 325.752930,507.445526 
	C319.514496,503.946930 313.130554,500.628418 307.443665,495.602417 
M346.763245,415.724243 
	C341.222473,412.266998 336.978668,407.224457 331.799042,403.363861 
	C320.971771,395.293610 318.642334,396.073700 314.533752,408.950226 
	C313.626282,411.794281 312.395020,413.577911 309.393341,414.258209 
	C300.286774,416.322021 292.299591,420.829102 285.059021,426.507416 
	C281.498108,429.300018 278.169708,430.603455 273.466827,430.563446 
	C259.921356,430.448181 256.800781,435.222443 263.820221,446.862885 
	C268.988342,455.433228 273.358917,464.238678 277.364136,473.321594 
	C277.961517,474.676331 278.972534,475.842804 279.713867,477.141113 
	C281.386627,480.070618 283.843933,480.936676 287.200134,480.916809 
	C310.842194,480.776886 334.485382,480.834045 358.128052,480.771118 
	C359.872406,480.766479 362.115967,481.581116 363.231293,479.753723 
	C364.523834,477.635895 362.689697,475.867310 361.442169,474.491943 
	C358.194916,470.911987 358.365112,467.446320 360.061157,463.070648 
	C362.450989,456.905029 363.760132,450.410004 363.102203,443.594757 
	C361.981842,431.989532 355.587555,423.580170 346.763245,415.724243 
M235.216827,444.500000 
	C235.220047,454.662933 235.440567,464.832550 235.130310,474.985901 
	C234.985779,479.715576 236.761337,481.026794 241.211319,480.916168 
	C251.035080,480.671967 260.869110,480.863525 270.698334,480.791870 
	C272.247681,480.780579 274.090912,481.396698 275.358398,479.405273 
	C274.940338,478.448730 274.540375,477.369720 274.014465,476.356110 
	C269.523773,467.700958 266.186676,458.565979 260.692566,450.279938 
	C254.108505,440.350128 255.227631,433.085754 261.834412,426.385010 
	C261.290375,424.970673 259.913177,424.615662 258.739044,424.076019 
	C250.999786,420.518860 246.706604,414.405701 245.109558,406.152344 
	C243.809204,399.432037 243.276001,392.635895 242.769318,385.830841 
	C242.644592,384.155731 242.720688,382.171814 240.246658,382.436798 
	C238.170593,382.659149 235.686951,382.654175 235.228531,385.532013 
	C235.020752,386.836304 235.079681,388.189270 235.082474,389.520020 
	C235.120239,407.513336 235.169449,425.506683 235.216827,444.500000 
M365.435669,429.619659 
	C366.915710,427.377106 366.602539,424.819244 366.611084,422.357758 
	C366.664825,406.871674 366.665405,391.385376 366.670563,375.899170 
	C366.676300,358.581177 366.680115,341.263153 366.651703,323.945221 
	C366.647980,321.672882 367.152802,318.847961 363.968597,318.296265 
	C358.803131,317.401276 353.595795,317.259491 347.736023,318.716064 
	C348.998962,319.646484 349.598541,320.192352 350.287262,320.579620 
	C357.870941,324.843811 357.736450,326.408081 350.749481,332.152405 
	C346.316803,335.796722 342.418793,340.104065 337.112122,343.050201 
	C340.441925,347.964630 343.476471,352.311798 346.376404,356.747009 
	C356.661865,372.477539 356.267395,381.267548 344.688751,396.190521 
	C343.974609,397.110931 343.267426,398.039124 342.508606,398.922089 
	C338.684204,403.371674 338.787964,405.043610 343.859680,408.086517 
	C349.392273,411.405914 353.802460,415.877930 357.886475,420.727234 
	C360.327209,423.625275 362.537628,426.717316 365.435669,429.619659 
M235.522491,334.489532 
	C241.616821,338.688538 248.909119,340.100342 255.507141,343.114624 
	C258.486176,344.475586 260.661316,343.888947 263.235596,341.998566 
	C272.583740,335.133911 282.931274,330.127258 294.262543,327.654205 
	C299.522461,326.506195 301.729431,323.428284 302.941254,318.775177 
	C301.688385,317.471954 300.195435,317.343048 298.708405,317.356781 
	C278.915833,317.539612 259.123627,317.763519 239.330887,317.922699 
	C236.356079,317.946594 235.148132,319.285095 235.241440,322.206543 
	C235.363510,326.029083 235.313705,329.857117 235.522491,334.489532 
M306.310333,333.993347 
	C305.173920,335.420776 304.182678,336.999908 302.876526,338.249969 
	C296.408691,344.440002 296.272614,344.884888 299.525360,353.314941 
	C304.350525,365.820282 318.976227,373.153229 331.219055,369.182953 
	C333.284485,368.513153 335.618744,367.857849 335.706329,365.189911 
	C335.793884,362.523285 333.876312,361.120209 331.647095,360.063751 
	C329.926666,359.248383 327.580963,359.574799 326.462341,357.159515 
	C327.916748,354.571411 327.662567,351.602051 327.789398,348.623810 
	C327.995300,343.790955 323.753113,345.210999 321.557587,343.772339 
	C321.009705,343.413361 320.458313,343.022766 320.014709,342.547607 
	C317.199646,339.531982 314.355652,336.539978 311.640320,333.435944 
	C309.892334,331.437744 308.358032,331.472900 306.310333,333.993347 
z"/>
<path fill="#000000" opacity="1.000000" stroke="none" 
	d="
M499.104309,175.747086 
	C509.926270,183.064728 520.335754,190.197754 525.315552,202.770248 
	C532.123657,219.958511 529.989380,236.681808 521.766663,252.435257 
	C507.865875,279.066803 485.938049,295.089142 455.588806,297.638733 
	C432.918732,299.543213 409.221832,287.152710 403.441193,260.753326 
	C402.237305,255.255371 399.313507,250.258102 398.644531,244.533096 
	C396.276703,224.269363 403.948273,207.568588 417.498047,193.408432 
	C432.639435,177.584976 451.297821,168.847076 473.503693,168.839539 
	C482.456207,168.836487 490.961884,171.047974 499.104309,175.747086 
z"/>
<path fill="#000000" opacity="1.000000" stroke="none" 
	d="
M197.952576,255.878876 
	C194.668991,284.692017 175.616653,298.182404 155.792633,300.740967 
	C142.436920,302.464722 129.803421,299.494659 118.195518,293.129913 
	C92.559212,279.073151 76.903008,257.747253 74.039925,228.272415 
	C72.640549,213.866211 76.673149,200.758514 86.344971,189.392776 
	C98.857010,174.689392 114.054993,166.847992 133.647247,168.753403 
	C147.799637,170.129776 160.476578,175.400101 171.479645,184.240982 
	C190.575058,199.583969 201.846344,218.861389 200.323669,244.234695 
	C200.090805,248.115097 198.845230,251.733109 197.952576,255.878876 
z"/>
<path fill="#000000" opacity="1.000000" stroke="none" 
	d="
M226.809006,197.512314 
	C196.053253,190.335999 168.264740,158.598557 167.993591,120.646317 
	C167.758118,87.688255 189.456818,66.312531 219.462128,67.993271 
	C238.090149,69.036720 253.272369,78.457031 266.059875,91.631767 
	C283.268097,109.361092 290.307800,130.668579 287.068573,155.136154 
	C282.957458,186.189911 258.400940,203.485229 226.809006,197.512314 
z"/>
<path fill="#000000" opacity="1.000000" stroke="none" 
	d="
M360.150482,198.303833 
	C335.371613,196.620514 316.481842,177.117599 314.824799,151.427719 
	C312.562927,116.360786 328.042664,90.665024 357.983765,73.657822 
	C372.988220,65.134949 389.301086,63.391361 405.452423,71.058189 
	C423.750671,79.744110 431.691559,95.650436 433.089966,114.825912 
	C435.442017,147.077362 416.418823,178.737442 387.210449,192.720413 
	C378.806671,196.743576 369.974152,198.778503 360.150482,198.303833 
z"/>
<path fill="#000000" opacity="1.000000" stroke="none" 
	d="
M307.090820,225.909744 
	C300.744965,220.102127 300.721710,220.082993 294.860474,225.957306 
	C244.731094,276.198578 194.584595,326.422882 144.544220,376.752655 
	C141.413879,379.901093 138.441360,381.170685 133.964188,380.430847 
	C129.403473,379.677185 124.662933,380.047760 120.006035,379.823975 
	C117.950317,379.725189 115.958015,379.199738 115.187111,376.943573 
	C114.462402,374.822632 115.874779,373.505035 117.240654,372.244293 
	C140.262497,350.993744 161.730789,328.175171 183.913147,306.078979 
	C219.554260,270.576324 254.927551,234.804886 290.433167,199.166092 
	C298.017853,191.552963 304.267334,191.571442 311.819611,199.312546 
	C367.077026,255.951431 423.604950,311.325928 479.235382,367.593384 
	C481.693787,370.079956 484.335754,372.414185 486.559753,375.095215 
	C488.835754,377.838898 487.914886,380.366852 484.360291,380.784180 
	C478.247192,381.501770 472.081818,381.830109 465.928986,382.130127 
	C462.764404,382.284424 460.877258,379.873077 458.884125,377.877411 
	C412.728424,331.663757 366.579895,285.442932 320.428375,239.225128 
	C316.072632,234.863159 311.706024,230.512009 307.090820,225.909744 
z"/>
<path fill="#000000" opacity="1.000000" stroke="none" 
	d="
M340.704590,463.010498 
	C341.712891,461.728638 342.685303,461.066498 343.882324,461.943970 
	C344.781067,462.602814 344.778900,463.670471 344.481506,464.677887 
	C343.270782,468.778625 340.077423,469.947571 336.339386,469.648682 
	C333.966034,469.458954 332.743774,470.053314 331.754364,472.267975 
	C330.404358,475.289703 327.869629,477.204346 324.542694,477.817017 
	C323.135376,478.076141 321.730835,477.668945 321.216583,476.252289 
	C320.596161,474.543243 321.894104,473.956818 323.288879,473.562469 
	C325.888153,472.827698 327.754272,471.411438 327.932434,468.444702 
	C328.133423,465.097717 325.325562,465.178650 323.315399,464.247833 
	C319.837006,462.637115 319.614349,460.319397 322.746582,457.893677 
	C324.179108,456.784241 325.807404,455.897064 327.429565,455.071442 
	C329.193726,454.173553 331.170044,452.999969 333.047363,454.351379 
	C335.152893,455.867096 333.951660,457.954437 333.305664,459.797028 
	C332.799316,461.241302 332.107971,462.734131 333.751404,463.814606 
	C336.074921,465.342133 338.400299,465.433960 340.704590,463.010498 
z"/>
<path fill="#000000" opacity="1.000000" stroke="none" 
	d="
M330.044373,440.539215 
	C329.622284,434.488800 333.140350,432.122406 338.825378,430.051117 
	C336.694702,434.831268 335.398468,438.914886 333.153015,442.384216 
	C331.520569,444.906494 330.631989,442.503906 330.044373,440.539215 
z"/>
<path fill="#000000" opacity="1.000000" stroke="none" 
	d="
M320.666809,361.949280 
	C318.068176,362.232941 316.339661,361.325745 315.291382,359.440826 
	C313.675293,356.534851 312.685699,353.494873 315.875671,350.953827 
	C318.533508,348.836670 320.873840,349.989136 322.861053,352.137543 
	C325.337311,354.814636 325.837891,357.653412 323.088806,360.483856 
	C322.528809,361.060455 321.734711,361.409729 320.666809,361.949280 
z"/>
</svg>